<svg width="247" height="30" viewBox="0 0 247 30" fill="none" xmlns="http://www.w3.org/2000/svg">
<g clip-path="url(#clip0_2344_15986)">
<path d="M43.6484 0.225338L43.6104 0.163177C40.3662 1.8415 37.0536 3.5509 34.0678 5.83528C31.9632 7.45145 29.9042 9.33179 28.7798 12.3776V12.3621C27.3286 15.8275 26.4701 19.2385 25.5508 19.9456C25.5508 19.9456 27.9061 17.8011 28.3543 17.4126C31.1351 15.0039 34.0678 12.7351 37.1752 10.6294C40.2826 8.52371 43.4661 6.63559 46.7179 4.95727L43.6484 0.225338Z" fill="url(#paint0_linear_2344_15986)"/>
<path d="M47.8351 6.69775L47.7895 6.63559C44.5453 8.31391 41.3543 10.202 38.2545 12.3077C35.147 14.4211 32.2067 16.69 29.4336 19.0909L32.5486 23.885C35.3218 21.4841 38.2621 19.2075 41.3695 17.1018C44.477 14.9961 47.6604 13.108 50.9046 11.4219L47.8351 6.68998" fill="#00B085"/>
<path d="M51.7922 12.805L51.7542 12.7428C48.5024 14.4211 45.319 16.3093 42.2115 18.4227C39.1041 20.5284 36.1638 22.7972 33.3906 25.2059L36.5057 30C39.2788 27.5913 42.2191 25.3225 45.3266 23.2168C48.434 21.1111 51.6174 19.223 54.8616 17.5447L51.7922 12.8128" fill="#007DC3"/>
<path d="M3.06946 17.1873L3.10744 17.2494C6.35165 15.5711 9.54266 13.683 12.6501 11.5773C15.7576 9.47164 18.6902 7.2028 21.471 4.7941L18.3636 0C15.5828 2.40093 12.6501 4.67754 9.54266 6.78322C6.43522 8.88889 3.2518 10.777 0 12.4631L3.06946 17.195" fill="#EF3E42"/>
<path d="M7.18057 23.5198L7.21856 23.582C10.4628 21.9036 13.6538 20.0155 16.7612 17.9099C19.8687 15.8042 22.8014 13.5276 25.5821 11.1266L22.4671 6.33255C19.6863 8.74125 16.7536 11.0101 13.6462 13.1158C10.5387 15.2292 7.35532 17.1096 4.10352 18.7956L7.17297 23.5276" fill="#F58025"/>
<path d="M29.3038 10.0466C29.3038 10.0466 26.9485 12.1911 26.5003 12.5796C23.7195 14.9883 20.7868 17.2572 17.6794 19.3629C14.5719 21.4685 11.3885 23.3566 8.13672 25.0427L11.2062 29.7747L11.2442 29.8368C14.4884 28.1585 17.7782 26.4103 20.7868 24.1647C22.8914 22.5874 24.9276 20.6682 26.0748 17.6224V17.6379C27.526 14.1725 28.3845 10.7615 29.3038 10.0466Z" fill="url(#paint1_linear_2344_15986)"/>
<path d="M115.995 13.5276C116.664 13.4965 117.302 13.4577 117.917 13.411C118.525 13.3644 119.087 13.3178 119.604 13.2712V15.5322C118.472 15.641 116.922 15.742 114.947 15.843C112.971 15.9363 111.383 15.9829 110.19 15.9829H106.635V13.7296H108.868L108.823 6.97747H107.06V4.7397H117.773V6.97747H116.056L116.01 13.5354L115.995 13.5276ZM111.345 6.9697L111.391 13.7218C111.702 13.7063 112.029 13.6908 112.379 13.683C112.728 13.683 113.078 13.6674 113.435 13.6519L113.503 6.9697H111.338H111.345ZM121.374 25.0816C120.379 26.0451 119.148 26.5268 117.689 26.5268C116.231 26.5268 115.023 26.0451 114.02 25.0816C113.017 24.1103 112.508 22.9448 112.508 21.5851C112.508 20.2253 113.009 19.0365 114.02 18.073C115.03 17.1096 116.253 16.62 117.689 16.62C119.125 16.62 120.379 17.1018 121.374 18.073C122.377 19.0365 122.871 20.2098 122.871 21.5851C122.871 22.9604 122.37 24.1181 121.374 25.0816ZM119.414 23.4577C119.923 22.9448 120.181 22.3155 120.181 21.5851C120.181 20.8547 119.938 20.2176 119.452 19.697C118.966 19.1841 118.373 18.9277 117.697 18.9277C117.021 18.9277 116.421 19.1841 115.919 19.697C115.418 20.2176 115.159 20.8469 115.159 21.5851C115.159 22.3232 115.402 22.9371 115.881 23.4577C116.367 23.9705 116.945 24.2269 117.629 24.2269C118.312 24.2269 118.905 23.9705 119.422 23.4577H119.414ZM120.645 3.90054H123.342V16.8531H120.645V12.6263H117.363V10.5128H120.645V9.51826H117.393V7.40482H120.645V3.90831V3.90054Z" fill="#182A33"/>
<path d="M125.377 14.289C126.091 13.7529 126.729 13.1624 127.284 12.5252C127.838 11.8803 128.264 11.2354 128.56 10.5827C128.811 10.0311 129.001 9.37839 129.153 8.6247C129.305 7.87101 129.373 7.13286 129.373 6.40248V4.662H132.116V6.40248C132.116 7.08624 132.184 7.77777 132.321 8.47707C132.465 9.18414 132.64 9.7902 132.86 10.2953C133.126 10.878 133.499 11.453 134 12.028C134.494 12.5952 135.056 13.1313 135.694 13.6208L134.304 15.4545C133.962 15.2137 133.575 14.9029 133.142 14.5144C132.708 14.1259 132.344 13.7607 132.047 13.411C131.66 12.9526 131.371 12.5874 131.174 12.3155C130.976 12.0435 130.87 11.8726 130.832 11.7949C130.786 11.9192 130.642 12.1601 130.406 12.5097C130.163 12.8594 129.882 13.2323 129.555 13.6286C129.198 14.0715 128.826 14.4833 128.439 14.864C128.051 15.2447 127.588 15.6177 127.048 15.9829L125.369 14.2968L125.377 14.289ZM141.165 25.0816C140.162 26.0451 138.939 26.5268 137.48 26.5268C136.021 26.5268 134.813 26.0451 133.81 25.0816C132.8 24.1103 132.298 22.9448 132.298 21.5851C132.298 20.2253 132.8 19.0365 133.81 18.073C134.821 17.1096 136.044 16.62 137.48 16.62C138.916 16.62 140.162 17.1018 141.165 18.073C142.168 19.0365 142.669 20.2098 142.669 21.5851C142.669 22.9604 142.168 24.1181 141.165 25.0816ZM139.235 19.697C138.749 19.1841 138.164 18.9277 137.48 18.9277C136.796 18.9277 136.203 19.1841 135.702 19.697C135.201 20.2176 134.95 20.8469 134.95 21.5851C134.95 22.3232 135.185 22.9371 135.672 23.4576C136.15 23.9705 136.735 24.2269 137.419 24.2269C138.103 24.2269 138.695 23.9705 139.212 23.4576C139.721 22.9448 139.979 22.3155 139.979 21.5851C139.979 20.8547 139.736 20.2176 139.25 19.697H139.235ZM140.602 3.94716H143.246V16.4491H140.602V11.1733H138.627V15.8353H136.067V4.21134H138.627V8.77233H140.602V3.94716Z" fill="#182A33"/>
<path d="M150.366 11.7483H152.896V17.6457H155.145V11.7483H157.683V17.6457H164.885V19.9534H145.709V17.6457H150.359V11.7483H150.366ZM158.83 15.8819C159.012 14.5377 159.157 13.1002 159.271 11.5773C159.377 10.0544 159.423 8.64025 159.392 7.32712H149.113V5.01942H162.105C162.105 6.65113 162.052 8.47708 161.93 10.5128C161.816 12.5408 161.656 14.3279 161.451 15.8819H158.83Z" fill="#182A33"/>
<path d="M166.588 16.2393V14.0093H186.015V16.2393H180.416V18.5004H182.391V25.7265H179.671V20.7537H169.938V18.4926H172.468V16.2315H166.588V16.2393ZM180.036 4.69308C181.069 5.6721 181.586 6.85315 181.586 8.23621C181.586 9.61927 181.061 10.7925 180.028 11.7793C178.987 12.7584 177.734 13.2479 176.267 13.2479C174.801 13.2479 173.54 12.7584 172.499 11.7793C171.466 10.7925 170.941 9.61927 170.941 8.23621C170.941 6.85315 171.458 5.6721 172.491 4.69308C173.525 3.70629 174.786 3.21678 176.275 3.21678C177.764 3.21678 179.018 3.70629 180.043 4.69308H180.036ZM174.368 10.202C174.907 10.7459 175.53 11.0101 176.267 11.0101C177.004 11.0101 177.627 10.7459 178.159 10.202C178.699 9.66589 178.957 9.00544 178.957 8.22844C178.957 7.45144 178.691 6.8143 178.159 6.27816C177.627 5.73426 176.997 5.47008 176.267 5.47008C175.538 5.47008 174.907 5.73426 174.368 6.27816C173.828 6.8143 173.57 7.46698 173.57 8.22844C173.57 8.9899 173.836 9.65812 174.368 10.202ZM175.188 18.5004H177.696V16.2393H175.188V18.5004Z" fill="#182A33"/>
<path d="M188.923 7.11733V4.85625H199.218V7.11733H195.503V7.94872C195.503 8.63248 195.625 9.3007 195.875 9.96892C196.118 10.6294 196.422 11.1966 196.779 11.655C197.159 12.129 197.668 12.603 198.291 13.0692C198.907 13.5431 199.537 13.9549 200.176 14.3201L198.785 16.2238C198.177 15.9363 197.661 15.6488 197.228 15.3535C196.795 15.0583 196.377 14.7319 195.974 14.3667C195.587 14.0016 195.23 13.6441 194.903 13.2867C194.576 12.9293 194.333 12.6263 194.181 12.3699C194.082 12.5952 193.923 12.8594 193.68 13.1779C193.436 13.4965 193.095 13.8928 192.639 14.3667C192.16 14.8796 191.704 15.3069 191.271 15.6643C190.838 16.0218 190.306 16.3869 189.668 16.7677L187.943 14.934C188.582 14.5532 189.22 14.0793 189.866 13.5043C190.511 12.9371 191.036 12.3465 191.453 11.7483C191.78 11.2587 192.054 10.6682 192.289 9.99223C192.517 9.30847 192.631 8.64025 192.631 7.99534V7.11733H188.916H188.923ZM195.875 18.4771V23.0692H205.403V25.3768H193.155V18.4848H195.875V18.4771ZM202.212 3.90054H204.909V19.5649H202.212V3.90054Z" fill="#182A33"/>
<path d="M207.729 14.3901H227.209V16.5579H207.729V14.3901ZM224.162 4.85625V6.993H221.533C221.83 7.29604 222.065 7.63792 222.217 8.02642C222.384 8.41492 222.46 8.82673 222.46 9.26962C222.46 10.4584 221.959 11.4685 220.971 12.3155C219.976 13.1546 218.791 13.5742 217.416 13.5742C216.04 13.5742 214.855 13.1469 213.875 12.2999C212.895 11.453 212.401 10.4429 212.401 9.26962C212.401 8.82673 212.485 8.41492 212.644 8.02642C212.804 7.63792 213.016 7.29604 213.275 6.993H210.669V4.85625H215.972V2.92929H218.882V4.85625H224.155H224.162ZM221.283 18.8034C222.301 19.6892 222.81 20.7615 222.81 22.0124C222.81 23.2634 222.301 24.3124 221.283 25.1981C220.257 26.0839 219.011 26.5268 217.537 26.5268C216.063 26.5268 214.84 26.0839 213.807 25.1981C212.773 24.3124 212.264 23.2479 212.264 22.0124C212.264 20.777 212.773 19.6892 213.807 18.8034C214.84 17.9176 216.086 17.4747 217.537 17.4747C218.988 17.4747 220.257 17.9176 221.283 18.8034ZM219.307 23.7296C219.816 23.2712 220.075 22.6962 220.075 22.0202C220.075 21.3442 219.839 20.7848 219.345 20.3186C218.859 19.8524 218.259 19.6193 217.537 19.6193C216.815 19.6193 216.215 19.8524 215.706 20.3108C215.189 20.7692 214.939 21.3364 214.939 22.0202C214.939 22.704 215.182 23.2712 215.676 23.7296C216.162 24.188 216.762 24.4211 217.476 24.4211C218.19 24.4211 218.806 24.188 219.315 23.7296H219.307ZM219.057 7.68454C218.601 7.25719 218.061 7.03963 217.423 7.03963C216.785 7.03963 216.268 7.25719 215.82 7.68454C215.372 8.11189 215.151 8.64025 215.151 9.27739C215.151 9.91453 215.372 10.4429 215.82 10.8702C216.276 11.2976 216.808 11.5074 217.423 11.5074C218.039 11.5074 218.601 11.2976 219.057 10.8702C219.497 10.4429 219.725 9.90676 219.725 9.27739C219.725 8.64802 219.505 8.11189 219.057 7.68454Z" fill="#182A33"/>
<path d="M234.145 15.9052L229.449 15.9285V13.7685H233.332C234.897 13.7685 236.69 13.7063 238.726 13.582C240.747 13.4577 242.312 13.3256 243.399 13.1935V15.3147C242.791 15.3924 241.955 15.4779 240.876 15.5633C239.797 15.6488 238.68 15.7343 237.518 15.812V18.6869H234.752V15.9052H234.145ZM232.549 5.29137C233.552 4.36674 234.768 3.90054 236.196 3.90054C237.624 3.90054 238.84 4.36674 239.843 5.29137C240.853 6.21601 241.355 7.34266 241.355 8.65579C241.355 9.96892 240.831 11.0412 239.774 11.927C238.718 12.805 237.526 13.2479 236.196 13.2479C234.866 13.2479 233.651 12.8127 232.602 11.927C231.561 11.049 231.037 9.95338 231.037 8.65579C231.037 7.3582 231.546 6.21601 232.557 5.29137H232.549ZM237.814 6.892C237.313 6.41026 236.781 6.16939 236.188 6.16939C235.596 6.16939 235.079 6.41026 234.57 6.892C234.069 7.37374 233.818 7.96426 233.818 8.66356C233.818 9.36286 234.069 9.9223 234.57 10.4118C235.079 10.8935 235.619 11.1344 236.188 11.1344C236.758 11.1344 237.313 10.8935 237.814 10.4118C238.316 9.93007 238.559 9.34732 238.559 8.66356C238.559 7.9798 238.316 7.37374 237.814 6.892ZM237.495 19.596V23.0692H247V25.3768H234.775V19.6037H237.495V19.596ZM239.797 18.5004V16.4336H244.166V3.93162H246.863V20.2642H244.166V18.5082H239.797V18.5004Z" fill="#182A33"/>
<path d="M76.3191 13.0303C76.7294 11.4608 77.1473 8.40715 77.0941 7.06294H67.3919V4.62315H80.0344C80.08 6.75991 79.6469 10.9169 79.1379 13.0303H83.9244V15.3691H75.3466V18.6247H80.2092V26.6822H77.3676V20.9868H67.1792V18.6247H72.3608V15.3691H63.707V13.0303H76.3267H76.3191Z" fill="#182A33"/>
<path d="M86.6978 18.4072L84.8516 16.5657C86.7738 15.742 88.696 14.4289 90.1775 12.9138C91.6591 11.3986 92.7075 9.51049 92.8975 7.5913H86.3331V5.1826H96.0809C95.9593 8.2906 95.0096 10.9713 93.4521 13.1391C91.8262 15.4002 89.5165 17.1406 86.6902 18.4072H86.6978ZM101.802 10.373H104.887V12.735H101.802V23.2246H99.006V3.93163H101.802V10.373Z" fill="#182A33"/>
</g>
<defs>
<linearGradient id="paint0_linear_2344_15986" x1="25.5508" y1="10.0544" x2="46.7103" y2="10.0544" gradientUnits="userSpaceOnUse">
<stop stop-color="#00853F"/>
<stop offset="0.05" stop-color="#118D3F"/>
<stop offset="0.16" stop-color="#319D40"/>
<stop offset="0.27" stop-color="#4CAA41"/>
<stop offset="0.4" stop-color="#60B442"/>
<stop offset="0.55" stop-color="#6EBB42"/>
<stop offset="0.72" stop-color="#77BF42"/>
<stop offset="1" stop-color="#7AC143"/>
</linearGradient>
<linearGradient id="paint1_linear_2344_15986" x1="8.14432" y1="19.9378" x2="29.3038" y2="19.9378" gradientUnits="userSpaceOnUse">
<stop stop-color="#FDB913"/>
<stop offset="0.27" stop-color="#FAB612"/>
<stop offset="0.45" stop-color="#F3AD12"/>
<stop offset="0.61" stop-color="#E79E12"/>
<stop offset="0.75" stop-color="#D68811"/>
<stop offset="0.88" stop-color="#C16C10"/>
<stop offset="1" stop-color="#A84D10"/>
</linearGradient>
<clipPath id="clip0_2344_15986">
<rect width="247" height="30" fill="white"/>
</clipPath>
</defs>
</svg>
