<svg width="111" height="110" viewBox="0 0 111 110" fill="none" xmlns="http://www.w3.org/2000/svg">
<path d="M85.1281 43.5707H25.8735C19.357 43.5707 14.0742 48.7899 14.0742 55.228V94.3183C14.0742 100.756 19.357 105.976 25.8735 105.976H85.1281C91.6447 105.976 96.9274 100.756 96.9274 94.3183V55.228C96.9274 48.7899 91.6447 43.5707 85.1281 43.5707Z" fill="white" stroke="#393C48" stroke-width="6" stroke-linecap="round" stroke-linejoin="round"/>
<path d="M31.0059 41.25V28.2244C31.0059 14.9171 42.0312 4.02439 55.5006 4.02439C68.97 4.02439 79.9954 14.9171 79.9954 28.2244V41.25" stroke="#393C48" stroke-width="6" stroke-linecap="round" stroke-linejoin="round"/>
<path d="M55.5 79.4683V87.9598" stroke="#393C48" stroke-width="6" stroke-linecap="round" stroke-linejoin="round"/>
<path d="M55.4999 79.4549C60.3442 79.4549 64.2713 75.575 64.2713 70.789C64.2713 66.003 60.3442 62.1232 55.4999 62.1232C50.6556 62.1232 46.7285 66.003 46.7285 70.789C46.7285 75.575 50.6556 79.4549 55.4999 79.4549Z" fill="#6FDCE3" stroke="#393C48" stroke-width="6" stroke-linecap="round" stroke-linejoin="round"/>
</svg>
