<svg width="111" height="110" viewBox="0 0 111 110" fill="none" xmlns="http://www.w3.org/2000/svg">
<path d="M85.1266 43.5708H25.8721C19.3555 43.5708 14.0728 48.79 14.0728 55.2281V94.3184C14.0728 100.757 19.3555 105.976 25.8721 105.976H85.1266C91.6432 105.976 96.9259 100.757 96.9259 94.3184V55.2281C96.9259 48.79 91.6432 43.5708 85.1266 43.5708Z" stroke="white" stroke-width="6" stroke-linecap="round" stroke-linejoin="round"/>
<path d="M31.0049 41.25V28.2244C31.0049 14.9171 42.0302 4.02441 55.4997 4.02441C68.9691 4.02441 79.9944 14.9171 79.9944 28.2244V41.25" stroke="white" stroke-width="6" stroke-linecap="round" stroke-linejoin="round"/>
<path d="M55.5 79.4683V87.9597" stroke="white" stroke-width="6" stroke-linecap="round" stroke-linejoin="round"/>
<path d="M55.4999 79.4548C60.3442 79.4548 64.2713 75.5749 64.2713 70.7889C64.2713 66.0029 60.3442 62.123 55.4999 62.123C50.6556 62.123 46.7285 66.0029 46.7285 70.7889C46.7285 75.5749 50.6556 79.4548 55.4999 79.4548Z" fill="#6FDCE3" stroke="white" stroke-width="6" stroke-linecap="round" stroke-linejoin="round"/>
</svg>
