<svg width="24" height="24" viewBox="0 0 24 24" fill="none" xmlns="http://www.w3.org/2000/svg">
<g clip-path="url(#clip0_149_1434)">
<path d="M23.4409 22.4019L16.1379 15.0988C17.5144 13.4936 18.3529 11.4127 18.3529 9.13692C18.3529 4.07715 14.2362 -0.0395508 9.17647 -0.0395508C6.72565 -0.0395508 4.42024 0.914802 2.68518 2.64704C0.952943 4.38068 -0.0014102 6.6861 1.56407e-06 9.13692C1.56407e-06 14.1967 4.11671 18.3134 9.17647 18.3134C11.4522 18.3134 13.5346 17.4748 15.1398 16.0983L22.4428 23.4014L23.4409 22.4019ZM9.17647 16.9016C4.896 16.9016 1.41177 13.4188 1.41177 9.13692C1.41035 7.06163 2.21788 5.11198 3.68471 3.64657C5.15012 2.17974 7.10118 1.37221 9.17647 1.37221C13.4569 1.37221 16.9412 4.85504 16.9412 9.13692C16.9412 13.4174 13.4569 16.9016 9.17647 16.9016Z" fill="#555555"/>
</g>
<defs>
<clipPath id="clip0_149_1434">
<rect width="24" height="24" fill="white"/>
</clipPath>
</defs>
</svg>
