<svg width="24" height="24" viewBox="0 0 24 24" fill="none" xmlns="http://www.w3.org/2000/svg">
<path fill-rule="evenodd" clip-rule="evenodd" d="M21 19.9998V10.5V10.4998H20.9998L12 3L3.00022 10.4998H3V10.5V19.9998C3 20.5521 3.44772 20.9998 4 20.9998H9.75V15.9998C9.75 15.4475 10.1977 14.9998 10.75 14.9998H13.25C13.8023 14.9998 14.25 15.4475 14.25 15.9998V20.9998H20C20.5523 20.9998 21 20.5521 21 19.9998Z" fill="#2D2D2D"/>
<path fill-rule="evenodd" clip-rule="evenodd" d="M21 19.9998V10.5V10.4998H20.9998L12 3L3.00022 10.4998H3V10.5V19.9998C3 20.5521 3.44772 20.9998 4 20.9998H9.75V15.9998C9.75 15.4475 10.1977 14.9998 10.75 14.9998H13.25C13.8023 14.9998 14.25 15.4475 14.25 15.9998V20.9998H20C20.5523 20.9998 21 20.5521 21 19.9998Z" fill="black" fill-opacity="0.2"/>
<path fill-rule="evenodd" clip-rule="evenodd" d="M21 19.9998V10.5V10.4998H20.9998L12 3L3.00022 10.4998H3V10.5V19.9998C3 20.5521 3.44772 20.9998 4 20.9998H9.75V15.9998C9.75 15.4475 10.1977 14.9998 10.75 14.9998H13.25C13.8023 14.9998 14.25 15.4475 14.25 15.9998V20.9998H20C20.5523 20.9998 21 20.5521 21 19.9998Z" fill="black" fill-opacity="0.2"/>
</svg>
