<svg width="38" height="38" viewBox="0 0 38 38" fill="none" xmlns="http://www.w3.org/2000/svg">
<rect width="38" height="38" rx="19" fill="#E9F9FA"/>
<path d="M19 21C15.5861 21 12.5502 22.7857 10.6174 25.557C10.2014 26.1534 9.99336 26.4516 10.0002 26.8547C10.0054 27.166 10.1859 27.5589 10.4121 27.7511C10.7048 28 11.1104 28 11.9217 28H26.0783C26.8896 28 27.2952 28 27.5879 27.7511C27.8141 27.5589 27.9946 27.166 27.9998 26.8547C28.0066 26.4516 27.7986 26.1534 27.3826 25.557C25.4498 22.7857 22.4139 21 19 21Z" fill="#B9C2D2" stroke="#B9C2D2" stroke-width="1.5" stroke-linecap="round" stroke-linejoin="round"/>
<path d="M19 18C21.2091 18 23 16.2091 23 14C23 11.7909 21.2091 10 19 10C16.7909 10 15 11.7909 15 14C15 16.2091 16.7909 18 19 18Z" fill="#B9C2D2" stroke="#B9C2D2" stroke-width="1.5" stroke-linecap="round" stroke-linejoin="round"/>
</svg>
