<svg width="52" height="52" viewBox="0 0 52 52" fill="none" xmlns="http://www.w3.org/2000/svg">
<path fill-rule="evenodd" clip-rule="evenodd" d="M27.0985 3.86804C26.3325 3.16118 25.152 3.16117 24.3859 3.86804L4.27188 22.4281C2.93372 23.6629 3.80737 25.8979 5.62817 25.8979H9.02557V44.3104C9.02557 46.5196 10.8164 48.3104 13.0256 48.3104H20.8967V48.3105H31.1792V48.3104H39.3008C41.5099 48.3104 43.3008 46.5195 43.3008 44.3104V25.8979H45.8563C47.6771 25.8979 48.5507 23.6629 47.2126 22.4281L27.0985 3.86804ZM31.1792 48.3104H20.8967V35.065C20.8967 32.8559 22.6875 31.065 24.8967 31.065H27.1792C29.3884 31.065 31.1792 32.8559 31.1792 35.065V48.3104Z" fill="black"/>
</svg>
