<svg width="60" height="60" viewBox="0 0 60 60" fill="none" xmlns="http://www.w3.org/2000/svg">
<g clip-path="url(#clip0_2174_18298)">
<rect width="60" height="60" fill="white"/>
<path d="M2.35857 18.3223C3.86944 14.7488 6.03252 11.5407 8.78753 8.78753C11.5425 6.03252 14.7506 3.87126 18.3223 2.35857C22.0218 0.792887 25.9515 0 30 0C34.0485 0 37.9782 0.792887 41.6777 2.35857C45.2512 3.86944 48.4593 6.03252 51.2125 8.78753C53.9675 11.5425 56.1287 14.7506 57.6414 18.3223C59.2071 22.0218 60 25.9515 60 30C60 34.0485 59.2071 37.9782 57.6414 41.6777C56.96 43.2909 56.1434 44.8292 55.2007 46.2852L59.6565 59.6584L46.2852 55.2007C44.8292 56.1433 43.2909 56.96 41.6777 57.6414C37.9782 59.2071 34.0485 60 30 60C25.9515 60 22.0218 59.2071 18.3223 57.6414C14.7488 56.1306 11.5407 53.9675 8.78753 51.2125C6.03252 48.4575 3.87126 45.2494 2.35857 41.6777C0.792889 37.9782 0 34.0485 0 30C0 25.9515 0.792889 22.0218 2.35857 18.3223Z" fill="#00ADB2"/>
<path d="M33.4688 34.1953L35.6172 36.9688C36.3073 36.1615 36.8281 35.1654 37.1797 33.9805C37.5443 32.7826 37.7266 31.4089 37.7266 29.8594C37.7266 27.8672 37.4271 26.1745 36.8281 24.7812C36.2422 23.388 35.4089 22.3333 34.3281 21.6172C33.2474 20.888 31.9714 20.5234 30.5 20.5234C29.0286 20.5234 27.7461 20.888 26.6523 21.6172C25.5716 22.3333 24.7318 23.3945 24.1328 24.8008C23.5339 26.194 23.2344 27.8802 23.2344 29.8594C23.2344 31.8385 23.5339 33.5312 24.1328 34.9375C24.7318 36.3307 25.5716 37.3919 26.6523 38.1211C27.7461 38.8372 29.0286 39.1953 30.5 39.1953C31.0339 39.1953 31.5742 39.1432 32.1211 39.0391L28.4297 34.1953H33.4688ZM43.7031 29.8594C43.7031 32.3203 43.306 34.5208 42.5117 36.4609C41.7305 38.388 40.6302 39.9831 39.2109 41.2461L43.2344 46.3438H37.7266L35.4414 43.5117C33.944 44.0977 32.2969 44.3906 30.5 44.3906C27.974 44.3906 25.7083 43.8112 23.7031 42.6523C21.6979 41.4935 20.1224 39.8203 18.9766 37.6328C17.8307 35.4323 17.2578 32.8411 17.2578 29.8594C17.2578 26.8646 17.8307 24.2734 18.9766 22.0859C20.1224 19.8854 21.6979 18.2122 23.7031 17.0664C25.7083 15.9076 27.974 15.3281 30.5 15.3281C33.013 15.3281 35.2656 15.9076 37.2578 17.0664C39.263 18.2122 40.8385 19.8854 41.9844 22.0859C43.1302 24.2734 43.7031 26.8646 43.7031 29.8594Z" fill="white"/>
</g>
<defs>
<clipPath id="clip0_2174_18298">
<rect width="60" height="60" fill="white"/>
</clipPath>
</defs>
</svg>
