<svg width="60" height="60" viewBox="0 0 60 60" fill="none" xmlns="http://www.w3.org/2000/svg">
<g clip-path="url(#clip0_2174_18301)">
<rect width="60" height="60" fill="white"/>
<path d="M2.35857 18.3223C3.86944 14.7488 6.03252 11.5407 8.78753 8.78753C11.5425 6.03252 14.7506 3.87126 18.3223 2.35857C22.0218 0.792887 25.9515 0 30 0C34.0485 0 37.9782 0.792887 41.6777 2.35857C45.2512 3.86944 48.4593 6.03252 51.2125 8.78753C53.9675 11.5425 56.1287 14.7506 57.6414 18.3223C59.2071 22.0218 60 25.9515 60 30C60 34.0485 59.2071 37.9782 57.6414 41.6777C56.96 43.2909 56.1434 44.8292 55.2007 46.2852L59.6565 59.6584L46.2852 55.2007C44.8292 56.1433 43.2909 56.96 41.6777 57.6414C37.9782 59.2071 34.0485 60 30 60C25.9515 60 22.0218 59.2071 18.3223 57.6414C14.7488 56.1306 11.5407 53.9675 8.78753 51.2125C6.03252 48.4575 3.87126 45.2494 2.35857 41.6777C0.792889 37.9782 0 34.0485 0 30C0 25.9515 0.792889 22.0218 2.35857 18.3223Z" fill="#0CA2FF"/>
<path d="M16.9258 44L26.7305 15.7188H34.2695L44.0352 44H37.7461L35.6172 37.4766H25.3828L23.2539 44H16.9258ZM34.1328 32.9062L30.5977 22.0859H30.4023L26.8672 32.9062H34.1328Z" fill="white"/>
</g>
<defs>
<clipPath id="clip0_2174_18301">
<rect width="60" height="60" fill="white"/>
</clipPath>
</defs>
</svg>
