<svg width="19" height="24" viewBox="0 0 19 24" fill="none" xmlns="http://www.w3.org/2000/svg">
<g clip-path="url(#clip0_1926_3217)">
<path d="M1.55115 23.5V0.504536L13.7269 0.500076L18.2919 5.06511V23.5H1.55115Z" fill="white" stroke="#2D2D2D"/>
<path d="M14.4601 1.20711L17.5848 4.33183H14.4601V1.20711Z" fill="#F2F2F2" stroke="#2D2D2D"/>
<path d="M10.7324 2.40527H0V7.8575H10.7324V2.40527Z" fill="#F44336"/>
<path d="M0 7.85742H1.05114V8.70864L0 7.85742Z" fill="#D32F2F"/>
<path d="M2.23657 3.19141H3.25296C3.52798 3.19141 3.73907 3.21286 3.88708 3.25619C4.03467 3.29952 4.14579 3.36173 4.22045 3.44325C4.29467 3.52477 4.3453 3.62345 4.37147 3.73929C4.39764 3.85513 4.41094 4.03447 4.41094 4.2773V4.61539C4.41094 4.86294 4.3852 5.04357 4.33414 5.15726C4.28309 5.27096 4.18913 5.35805 4.05269 5.41855C3.91626 5.47947 3.73735 5.5095 3.51682 5.5095H3.2461V7.07249H2.237V3.19184L2.23657 3.19141ZM3.2461 3.85513V4.84278C3.27485 4.84449 3.29973 4.84535 3.32032 4.84535C3.413 4.84535 3.47735 4.82261 3.51339 4.77713C3.54943 4.73166 3.56745 4.63684 3.56745 4.49311V4.17433C3.56745 4.04176 3.54686 3.95552 3.50524 3.91562C3.46362 3.87572 3.37739 3.85556 3.24653 3.85556L3.2461 3.85513Z" fill="white"/>
<path d="M4.70096 3.19141H5.45607C5.94345 3.19141 6.27296 3.21372 6.445 3.25834C6.61662 3.30296 6.74747 3.37675 6.83714 3.47886C6.92638 3.58097 6.98259 3.6951 7.0049 3.82038C7.02721 3.94566 7.03836 4.19235 7.03836 4.56004V5.91923C7.03836 6.26761 7.02206 6.50058 6.98945 6.61814C6.95684 6.7357 6.89935 6.82751 6.81784 6.89401C6.73632 6.96051 6.63549 7.00685 6.51579 7.03302C6.39609 7.05919 6.21547 7.07249 5.97392 7.07249H4.70096V3.19184V3.19141ZM5.71006 3.85513V6.40791C5.8555 6.40791 5.94474 6.37874 5.97864 6.32039C6.0121 6.26204 6.02883 6.10329 6.02883 5.84458V4.33694C6.02883 4.16103 6.02326 4.04863 6.0121 3.99886C6.00095 3.94952 5.9752 3.91305 5.9353 3.88988C5.8954 3.86671 5.82032 3.85513 5.71006 3.85513Z" fill="white"/>
<path d="M7.41422 3.19141H9.12351V3.96797H8.42374V4.70377H9.04714V5.44214H8.42374V7.07206H7.41464V3.19141H7.41422Z" fill="white"/>
<path d="M11.5351 16.1405V11.709H8.30749V16.1405H6.70288L9.92153 20.2623L13.1402 16.1405H11.5351Z" fill="#F44336"/>
<path d="M13.1569 20.4033H6.70587V21.025H13.1569V20.4033Z" fill="#F44336"/>
</g>
<defs>
<clipPath id="clip0_1926_3217">
<rect width="18.7919" height="24" fill="white"/>
</clipPath>
</defs>
</svg>
